<?xml version="1.0" standalone="no"?>
<!DOCTYPE svg PUBLIC "-//W3C//DTD SVG 20010904//EN"
 "http://www.w3.org/TR/2001/REC-SVG-20010904/DTD/svg10.dtd">
<svg version="1.0" xmlns="http://www.w3.org/2000/svg"
 width="500.000000pt" height="500.000000pt" viewBox="0 0 500.000000 500.000000"
 preserveAspectRatio="xMidYMid meet">
<metadata>
Created by potrace 1.14, written by Peter Selinger 2001-2017
</metadata>
<g transform="translate(0.000000,500.000000) scale(0.100000,-0.100000)"
fill="#000000" stroke="none">
<path d="M2606 4782 c-3 -5 -25 -7 -49 -6 -47 2 -47 3 -49 -68 -1 -21 -6 -38
-10 -38 -5 0 -6 -6 -1 -12 12 -19 10 -282 -2 -290 -6 -5 -5 -8 3 -8 10 0 10
-5 1 -21 -6 -12 -7 -19 -1 -15 5 3 8 -11 6 -34 -2 -39 -1 -40 29 -41 18 -1 36
-1 41 0 15 3 399 1 417 -2 9 -2 27 -11 40 -20 13 -10 17 -15 9 -11 -13 7 -13
5 -2 -8 7 -9 14 -39 15 -67 1 -28 5 -51 9 -51 4 0 5 -7 2 -15 -9 -23 -10 -165
-1 -165 5 0 6 -4 2 -10 -3 -5 -7 -37 -9 -72 -5 -70 -13 -101 -27 -92 -5 3 -9
0 -9 -6 0 -6 -4 -8 -10 -5 -5 3 -10 2 -10 -3 0 -12 -43 -10 -52 3 -5 7 -8 7
-8 0 0 -12 -109 -14 -127 -2 -6 4 -14 3 -17 -2 -7 -10 -65 -9 -82 1 -6 4 -14
4 -18 1 -12 -13 -116 -12 -109 1 5 8 3 8 -8 0 -8 -5 -23 -10 -34 -10 -34 1
-41 -15 -40 -91 0 -40 -3 -73 -8 -73 -6 0 -5 -5 0 -12 11 -14 11 -74 0 -84 -4
-4 -2 -14 5 -21 9 -11 9 -17 -3 -24 -8 -5 -9 -9 -4 -9 6 0 10 -16 11 -35 0
-22 -3 -32 -10 -28 -6 4 -5 0 1 -9 7 -8 10 -18 7 -21 -4 -3 -3 -18 0 -32 l7
-26 248 3 c306 4 289 12 298 -127 9 -144 9 -270 0 -282 -5 -7 -6 -13 -1 -13 5
0 9 -36 9 -80 0 -44 -3 -80 -8 -80 -4 0 -5 -6 0 -12 8 -13 5 -237 -3 -250 -3
-5 0 -8 6 -8 6 0 8 -5 4 -12 -5 -7 -9 -53 -11 -103 -1 -49 -4 -97 -6 -105 -9
-35 -19 -48 -35 -45 -9 1 -29 -1 -44 -6 -18 -5 -29 -3 -32 4 -2 7 -5 8 -5 2
-1 -6 -74 -10 -202 -9 -162 1 -203 -2 -215 -13 -8 -8 -12 -18 -9 -23 3 -5 1
-11 -4 -15 -7 -4 -7 -15 0 -32 6 -18 6 -30 -2 -39 -6 -8 -8 -14 -3 -14 11 0
11 -211 0 -228 -4 -7 -4 -12 1 -12 10 0 10 -211 -1 -228 -4 -6 -3 -12 1 -12 5
0 8 -36 9 -80 0 -43 3 -82 7 -86 6 -7 106 52 119 71 4 5 8 6 8 1 0 -6 9 0 20
12 12 12 27 22 35 22 8 0 18 7 23 16 5 9 12 15 16 15 7 -1 55 28 74 46 6 6 21
15 32 18 11 3 20 11 20 16 0 5 7 9 15 9 8 0 15 4 15 8 0 5 11 14 25 20 13 6
32 18 42 27 24 21 144 100 166 108 9 3 17 11 17 17 0 5 6 10 14 10 8 0 17 7
20 16 3 8 10 12 16 9 5 -3 10 -1 10 4 0 6 7 11 15 11 8 0 15 5 15 10 0 6 5 10
11 10 7 0 19 8 28 17 9 10 23 19 31 21 8 2 17 8 18 13 2 5 10 9 18 9 8 0 14 5
14 10 0 6 7 10 15 10 8 0 15 4 15 8 0 5 11 14 25 20 14 7 31 17 38 22 7 6 41
29 77 53 36 23 67 45 68 50 2 4 10 7 18 7 8 0 14 4 14 9 0 5 14 14 30 21 17 7
30 17 30 22 0 5 5 6 10 3 6 -3 13 1 16 9 3 9 12 16 20 16 8 0 14 5 14 11 0 5
5 7 10 4 6 -3 10 -1 10 4 0 6 7 11 15 11 9 0 18 7 21 15 4 8 10 12 15 9 5 -3
9 -1 9 4 0 5 9 12 21 15 13 4 18 10 13 18 -4 8 -3 10 5 5 6 -4 18 0 27 8 9 9
20 14 25 11 5 -4 9 2 9 11 0 10 3 14 7 11 3 -4 12 -2 20 4 7 6 13 9 13 5 0 -3
8 2 19 13 10 10 25 21 32 23 12 4 14 84 15 469 0 312 -3 469 -10 478 -7 10 -7
13 -1 9 13 -8 14 371 1 391 -6 9 -5 12 0 8 12 -7 13 1078 1 1089 -4 4 -268 8
-586 8 -319 1 -583 4 -586 8 -4 4 -16 3 -26 -3 -14 -7 -19 -6 -19 3 0 8 -3 9
-8 3 -9 -13 -95 -13 -104 0 -5 7 -8 6 -8 0 0 -12 -40 -13 -57 -2 -7 4 -14 4
-17 -1z"/>
<path d="M2265 4772 c-2 -2 -235 -4 -519 -5 -336 -1 -516 -5 -516 -12 0 -7 -3
-7 -8 0 -10 14 -322 15 -338 1 -8 -7 -9 -19 -3 -34 6 -15 5 -21 -1 -17 -6 4
-7 -2 -1 -17 5 -15 5 -31 0 -41 -7 -11 -6 -17 1 -17 6 0 9 -4 6 -8 -7 -11 -8
-70 -3 -104 2 -16 0 -28 -5 -28 -5 0 -6 -4 -3 -10 12 -19 14 -50 4 -56 -6 -4
-6 -11 2 -20 6 -8 8 -14 3 -14 -11 0 -10 -92 0 -109 4 -6 4 -11 -1 -11 -10 0
-9 -142 1 -158 4 -7 4 -12 -1 -12 -12 0 -10 -124 2 -132 6 -5 6 -8 -1 -8 -9 0
-11 -31 -4 -50 1 -3 2 -18 1 -35 -1 -16 -3 -56 -4 -87 -2 -35 1 -58 8 -58 6 0
6 -3 -1 -8 -6 -4 -9 -16 -7 -27 4 -21 4 -49 0 -125 -1 -25 2 -48 8 -52 7 -5 6
-8 -1 -8 -6 0 -9 -15 -7 -37 4 -48 4 -50 0 -98 -2 -22 0 -48 5 -57 5 -10 5
-18 1 -18 -10 0 -9 -132 1 -148 4 -7 3 -12 -2 -12 -5 0 -7 -15 -5 -32 3 -18 4
-37 4 -43 -6 -58 -4 -131 4 -137 6 -5 6 -8 -2 -8 -11 0 -10 -36 1 -47 3 -3 1
-16 -4 -29 -6 -16 -6 -24 1 -24 6 0 7 -6 2 -12 -11 -18 -11 -68 0 -68 6 0 6
-5 0 -12 -11 -15 -11 -68 0 -85 5 -7 4 -13 0 -13 -9 0 -9 -57 0 -66 3 -3 1
-21 -3 -40 -5 -20 -4 -34 2 -34 5 0 6 -5 2 -11 -10 -17 -11 -61 -1 -81 4 -10
4 -18 0 -18 -4 0 -8 -11 -8 -25 0 -14 2 -25 5 -25 7 0 4 -66 -5 -79 -3 -6 -1
-11 5 -11 6 0 8 -5 5 -11 -9 -13 -12 -79 -5 -79 3 0 5 -13 5 -30 0 -16 -4 -30
-8 -30 -5 0 -5 -5 -2 -11 11 -17 13 -59 3 -59 -5 0 -4 -8 1 -18 7 -13 7 -22
-1 -30 -8 -8 -8 -15 0 -25 8 -9 8 -17 1 -24 -8 -8 -8 -13 0 -17 8 -5 8 -13 1
-26 -6 -11 -6 -21 -1 -24 5 -3 5 -21 1 -40 -4 -19 -5 -38 -2 -41 9 -9 8 -55
-1 -55 -6 0 -6 -5 0 -12 8 -12 8 -43 1 -140 -2 -21 -1 -38 2 -38 3 0 5 -20 6
-45 1 -47 23 -76 83 -107 14 -7 33 -20 41 -28 18 -18 39 -31 97 -61 24 -13 41
-25 38 -27 -4 -5 10 -14 78 -49 15 -8 27 -19 27 -24 0 -6 4 -8 9 -5 5 3 14 -1
21 -9 7 -9 35 -28 61 -43 27 -15 49 -30 49 -34 0 -5 7 -8 15 -8 8 0 15 -3 15
-7 0 -5 27 -24 60 -43 33 -19 60 -38 60 -42 0 -5 7 -8 15 -8 8 0 15 -4 15 -10
0 -5 6 -10 13 -10 7 0 23 -9 35 -20 12 -11 26 -20 32 -20 5 0 10 -4 10 -10 0
-5 5 -10 10 -10 6 0 16 -5 23 -10 7 -6 57 -40 112 -76 55 -36 108 -72 118 -80
10 -8 29 -20 43 -26 13 -6 24 -15 24 -20 0 -4 4 -8 10 -8 11 0 103 -62 108
-72 2 -5 9 -8 16 -8 7 0 22 -9 34 -20 12 -12 22 -18 22 -15 0 3 6 1 13 -5 18
-15 87 -60 93 -60 5 0 23 -14 54 -42 10 -9 21 -14 24 -11 3 4 6 1 6 -6 0 -9 4
-9 14 1 8 7 12 16 10 20 -7 10 -6 687 0 697 4 5 2 12 -4 16 -6 4 -8 10 -5 15
3 4 5 35 6 69 1 41 5 59 13 55 6 -3 2 2 -8 10 -11 9 -16 16 -10 16 5 0 8 63 6
156 -3 117 0 159 10 172 10 12 10 14 0 8 -10 -6 -13 28 -12 176 1 279 3 257
-20 253 -11 -2 -22 1 -25 6 -4 5 -11 6 -18 2 -20 -12 -78 -12 -70 1 4 6 0 6
-9 -2 -23 -19 -274 -18 -318 1 -8 4 -25 8 -37 10 -11 2 -27 8 -35 13 -7 6 -20
14 -28 18 -38 17 -59 33 -53 39 3 4 1 7 -4 7 -14 0 -83 66 -83 80 0 5 -4 10
-10 10 -5 0 -10 7 -10 15 0 8 -5 15 -10 15 -6 0 -9 3 -9 8 1 4 0 10 -1 15 -1
4 -3 10 -5 15 -1 4 -6 16 -11 27 -4 11 -9 76 -9 145 0 71 -4 128 -10 132 -6 5
-6 8 1 8 14 0 14 30 0 30 -7 0 -7 3 -1 8 13 9 15 72 2 72 -5 0 -4 6 2 14 13
16 11 37 -4 48 -7 5 -7 8 0 8 7 0 10 99 9 288 0 189 3 292 10 301 8 11 8 13
-1 8 -8 -5 -11 21 -10 103 2 69 -2 110 -8 110 -5 0 -4 4 3 9 8 4 14 12 14 16
0 4 -6 12 -14 16 -10 7 -10 9 0 9 9 0 10 5 2 19 -5 11 -6 22 -1 25 7 5 8 29 1
61 -1 6 -2 12 0 15 1 3 3 25 5 50 4 54 27 121 55 160 11 15 20 33 20 40 0 6 5
8 10 5 6 -3 10 1 10 9 0 9 6 15 13 13 6 -1 11 4 10 11 -2 6 1 12 5 12 5 0 22
11 37 24 16 14 32 23 37 20 4 -3 8 -1 8 4 0 27 167 72 248 68 24 -1 45 1 48 6
3 5 10 6 15 3 18 -12 179 -12 179 -1 0 8 2 8 8 0 7 -11 47 -12 59 -1 3 4 5
104 4 223 -2 165 1 220 11 232 11 13 11 14 0 8 -9 -5 -13 -3 -11 5 3 24 -1 39
-8 38 -5 -1 -10 -1 -13 0 -10 4 -102 6 -105 3z"/>
<path d="M2281 3715 c-1 -6 -11 -15 -23 -20 -16 -7 -24 -21 -28 -45 -3 -19 -5
-240 -4 -491 0 -524 -6 -489 91 -494 31 -2 61 2 67 7 12 12 13 818 1 837 -3 6
-3 11 2 11 4 0 8 38 8 85 1 47 -3 85 -8 85 -4 0 -6 4 -3 9 8 13 -41 20 -53 8
-8 -8 -11 -7 -11 2 0 10 -3 11 -14 2 -11 -9 -15 -9 -19 1 -3 7 -6 8 -6 3z"/>
</g>
</svg>
